<mxfile host="app.diagrams.net" agent="Mozilla/5.0 (Windows NT 10.0; Win64; x64) AppleWebKit/537.36 (KHTML, like Gecko) Chrome/129.0.0.0 Safari/537.36" version="24.9.0">
  <diagram id="C5RBs43oDa-KdzZeNtuy" name="Page-1">
    <mxGraphModel dx="969" dy="561" grid="1" gridSize="10" guides="1" tooltips="1" connect="1" arrows="1" fold="1" page="1" pageScale="1" pageWidth="827" pageHeight="1169" math="0" shadow="0">
      <root>
        <mxCell id="WIyWlLk6GJQsqaUBKTNV-0" />
        <mxCell id="WIyWlLk6GJQsqaUBKTNV-1" parent="WIyWlLk6GJQsqaUBKTNV-0" />
        <mxCell id="rXlIxwhJtUQTBKDLvqy7-0" value="Giasuc" style="swimlane;fontStyle=1;align=center;verticalAlign=top;childLayout=stackLayout;horizontal=1;startSize=26;horizontalStack=0;resizeParent=1;resizeParentMax=0;resizeLast=0;collapsible=1;marginBottom=0;whiteSpace=wrap;html=1;" vertex="1" parent="WIyWlLk6GJQsqaUBKTNV-1">
          <mxGeometry x="470.5" y="200" width="219" height="190" as="geometry" />
        </mxCell>
        <mxCell id="rXlIxwhJtUQTBKDLvqy7-1" value="&lt;div&gt;# soluong: int  &lt;br&gt;# loai: string&lt;br&gt;&lt;/div&gt;" style="text;strokeColor=none;fillColor=none;align=left;verticalAlign=top;spacingLeft=4;spacingRight=4;overflow=hidden;rotatable=0;points=[[0,0.5],[1,0.5]];portConstraint=eastwest;whiteSpace=wrap;html=1;" vertex="1" parent="rXlIxwhJtUQTBKDLvqy7-0">
          <mxGeometry y="26" width="219" height="34" as="geometry" />
        </mxCell>
        <mxCell id="rXlIxwhJtUQTBKDLvqy7-2" value="" style="line;strokeWidth=1;fillColor=none;align=left;verticalAlign=middle;spacingTop=-1;spacingLeft=3;spacingRight=3;rotatable=0;labelPosition=right;points=[];portConstraint=eastwest;strokeColor=inherit;" vertex="1" parent="rXlIxwhJtUQTBKDLvqy7-0">
          <mxGeometry y="60" width="219" height="8" as="geometry" />
        </mxCell>
        <mxCell id="rXlIxwhJtUQTBKDLvqy7-3" value="&lt;div&gt;+ Giasuc()&lt;br&gt;+ Sinhcon() : int  &lt;br&gt;+ Laysoluong() : int  &lt;br&gt;+ Phanloai() : string&amp;nbsp;&amp;nbsp;&lt;br&gt;&lt;/div&gt;&lt;div&gt;&lt;i&gt;+ Tieng_keu() : string&amp;nbsp;&lt;/i&gt;&lt;br&gt;&lt;i&gt;+ Chosua() : int&lt;/i&gt;&lt;br&gt;&lt;/div&gt;&lt;div&gt;&lt;i&gt;+ Nhap() : void&amp;nbsp;&lt;/i&gt;&lt;i&gt;&lt;br&gt;&lt;/i&gt;&lt;/div&gt;" style="text;strokeColor=none;fillColor=none;align=left;verticalAlign=top;spacingLeft=4;spacingRight=4;overflow=hidden;rotatable=0;points=[[0,0.5],[1,0.5]];portConstraint=eastwest;whiteSpace=wrap;html=1;" vertex="1" parent="rXlIxwhJtUQTBKDLvqy7-0">
          <mxGeometry y="68" width="219" height="122" as="geometry" />
        </mxCell>
        <mxCell id="rXlIxwhJtUQTBKDLvqy7-4" value="Bo" style="swimlane;fontStyle=1;align=center;verticalAlign=top;childLayout=stackLayout;horizontal=1;startSize=26;horizontalStack=0;resizeParent=1;resizeParentMax=0;resizeLast=0;collapsible=1;marginBottom=0;whiteSpace=wrap;html=1;" vertex="1" parent="WIyWlLk6GJQsqaUBKTNV-1">
          <mxGeometry x="790" y="370" width="240" height="130" as="geometry" />
        </mxCell>
        <mxCell id="rXlIxwhJtUQTBKDLvqy7-5" value="&amp;nbsp;" style="text;strokeColor=none;fillColor=none;align=left;verticalAlign=top;spacingLeft=4;spacingRight=4;overflow=hidden;rotatable=0;points=[[0,0.5],[1,0.5]];portConstraint=eastwest;whiteSpace=wrap;html=1;" vertex="1" parent="rXlIxwhJtUQTBKDLvqy7-4">
          <mxGeometry y="26" width="240" height="24" as="geometry" />
        </mxCell>
        <mxCell id="rXlIxwhJtUQTBKDLvqy7-6" value="" style="line;strokeWidth=1;fillColor=none;align=left;verticalAlign=middle;spacingTop=-1;spacingLeft=3;spacingRight=3;rotatable=0;labelPosition=right;points=[];portConstraint=eastwest;strokeColor=inherit;" vertex="1" parent="rXlIxwhJtUQTBKDLvqy7-4">
          <mxGeometry y="50" width="240" height="8" as="geometry" />
        </mxCell>
        <mxCell id="rXlIxwhJtUQTBKDLvqy7-7" value="+ Bo()  &lt;br&gt;+ ~Chosua() : int&amp;nbsp;&lt;br&gt;+ ~Tieng_keu() : string&amp;nbsp;&lt;br&gt;+ ~Nhap() : void&amp;nbsp; &amp;nbsp;" style="text;strokeColor=none;fillColor=none;align=left;verticalAlign=top;spacingLeft=4;spacingRight=4;overflow=hidden;rotatable=0;points=[[0,0.5],[1,0.5]];portConstraint=eastwest;whiteSpace=wrap;html=1;" vertex="1" parent="rXlIxwhJtUQTBKDLvqy7-4">
          <mxGeometry y="58" width="240" height="72" as="geometry" />
        </mxCell>
        <mxCell id="rXlIxwhJtUQTBKDLvqy7-8" value="De" style="swimlane;fontStyle=1;align=center;verticalAlign=top;childLayout=stackLayout;horizontal=1;startSize=26;horizontalStack=0;resizeParent=1;resizeParentMax=0;resizeLast=0;collapsible=1;marginBottom=0;whiteSpace=wrap;html=1;" vertex="1" parent="WIyWlLk6GJQsqaUBKTNV-1">
          <mxGeometry x="445" y="510" width="270" height="130" as="geometry" />
        </mxCell>
        <mxCell id="rXlIxwhJtUQTBKDLvqy7-9" value="&amp;nbsp;" style="text;strokeColor=none;fillColor=none;align=left;verticalAlign=top;spacingLeft=4;spacingRight=4;overflow=hidden;rotatable=0;points=[[0,0.5],[1,0.5]];portConstraint=eastwest;whiteSpace=wrap;html=1;" vertex="1" parent="rXlIxwhJtUQTBKDLvqy7-8">
          <mxGeometry y="26" width="270" height="24" as="geometry" />
        </mxCell>
        <mxCell id="rXlIxwhJtUQTBKDLvqy7-10" value="" style="line;strokeWidth=1;fillColor=none;align=left;verticalAlign=middle;spacingTop=-1;spacingLeft=3;spacingRight=3;rotatable=0;labelPosition=right;points=[];portConstraint=eastwest;strokeColor=inherit;" vertex="1" parent="rXlIxwhJtUQTBKDLvqy7-8">
          <mxGeometry y="50" width="270" height="8" as="geometry" />
        </mxCell>
        <mxCell id="rXlIxwhJtUQTBKDLvqy7-11" value="+ De()&lt;br&gt;+ ~Chosua() : int&amp;nbsp;&lt;br&gt;+ ~Tieng_keu() : string&amp;nbsp;&lt;br&gt;+ ~Nhap() : void&amp;nbsp; &amp;nbsp;" style="text;strokeColor=none;fillColor=none;align=left;verticalAlign=top;spacingLeft=4;spacingRight=4;overflow=hidden;rotatable=0;points=[[0,0.5],[1,0.5]];portConstraint=eastwest;whiteSpace=wrap;html=1;" vertex="1" parent="rXlIxwhJtUQTBKDLvqy7-8">
          <mxGeometry y="58" width="270" height="72" as="geometry" />
        </mxCell>
        <mxCell id="rXlIxwhJtUQTBKDLvqy7-12" value="" style="endArrow=block;endSize=16;endFill=0;html=1;rounded=0;entryX=0.466;entryY=0.973;entryDx=0;entryDy=0;entryPerimeter=0;exitX=0.479;exitY=-0.001;exitDx=0;exitDy=0;exitPerimeter=0;" edge="1" parent="WIyWlLk6GJQsqaUBKTNV-1" source="rXlIxwhJtUQTBKDLvqy7-8" target="rXlIxwhJtUQTBKDLvqy7-3">
          <mxGeometry width="160" relative="1" as="geometry">
            <mxPoint x="575" y="460" as="sourcePoint" />
            <mxPoint x="575" y="390" as="targetPoint" />
          </mxGeometry>
        </mxCell>
        <mxCell id="rXlIxwhJtUQTBKDLvqy7-13" value="Cuu" style="swimlane;fontStyle=1;align=center;verticalAlign=top;childLayout=stackLayout;horizontal=1;startSize=26;horizontalStack=0;resizeParent=1;resizeParentMax=0;resizeLast=0;collapsible=1;marginBottom=0;whiteSpace=wrap;html=1;" vertex="1" parent="WIyWlLk6GJQsqaUBKTNV-1">
          <mxGeometry x="130" y="370" width="240" height="130" as="geometry" />
        </mxCell>
        <mxCell id="rXlIxwhJtUQTBKDLvqy7-14" value="&amp;nbsp;" style="text;strokeColor=none;fillColor=none;align=left;verticalAlign=top;spacingLeft=4;spacingRight=4;overflow=hidden;rotatable=0;points=[[0,0.5],[1,0.5]];portConstraint=eastwest;whiteSpace=wrap;html=1;" vertex="1" parent="rXlIxwhJtUQTBKDLvqy7-13">
          <mxGeometry y="26" width="240" height="24" as="geometry" />
        </mxCell>
        <mxCell id="rXlIxwhJtUQTBKDLvqy7-15" value="" style="line;strokeWidth=1;fillColor=none;align=left;verticalAlign=middle;spacingTop=-1;spacingLeft=3;spacingRight=3;rotatable=0;labelPosition=right;points=[];portConstraint=eastwest;strokeColor=inherit;" vertex="1" parent="rXlIxwhJtUQTBKDLvqy7-13">
          <mxGeometry y="50" width="240" height="8" as="geometry" />
        </mxCell>
        <mxCell id="rXlIxwhJtUQTBKDLvqy7-16" value="&lt;div&gt;+ Cuu()&lt;br&gt;+ ~Chosua() : int&amp;nbsp;&lt;br&gt;+ ~Tieng_keu() : string&amp;nbsp;&lt;br&gt;+ ~Nhap() : void&amp;nbsp; &amp;nbsp;&lt;br&gt;&lt;/div&gt;" style="text;strokeColor=none;fillColor=none;align=left;verticalAlign=top;spacingLeft=4;spacingRight=4;overflow=hidden;rotatable=0;points=[[0,0.5],[1,0.5]];portConstraint=eastwest;whiteSpace=wrap;html=1;" vertex="1" parent="rXlIxwhJtUQTBKDLvqy7-13">
          <mxGeometry y="58" width="240" height="72" as="geometry" />
        </mxCell>
        <mxCell id="rXlIxwhJtUQTBKDLvqy7-17" value="" style="endArrow=block;endSize=16;endFill=0;html=1;rounded=0;exitX=0.5;exitY=0;exitDx=0;exitDy=0;" edge="1" parent="WIyWlLk6GJQsqaUBKTNV-1" source="rXlIxwhJtUQTBKDLvqy7-13">
          <mxGeometry width="160" relative="1" as="geometry">
            <mxPoint x="250" y="291" as="sourcePoint" />
            <mxPoint x="470.5" y="291.37" as="targetPoint" />
            <Array as="points">
              <mxPoint x="250" y="290" />
              <mxPoint x="470.5" y="291.37" />
            </Array>
          </mxGeometry>
        </mxCell>
        <mxCell id="rXlIxwhJtUQTBKDLvqy7-18" value="" style="endArrow=block;endSize=16;endFill=0;html=1;rounded=0;exitX=0.5;exitY=0;exitDx=0;exitDy=0;" edge="1" parent="WIyWlLk6GJQsqaUBKTNV-1" source="rXlIxwhJtUQTBKDLvqy7-4">
          <mxGeometry width="160" relative="1" as="geometry">
            <mxPoint x="910" y="290" as="sourcePoint" />
            <mxPoint x="690" y="290" as="targetPoint" />
            <Array as="points">
              <mxPoint x="910" y="290" />
            </Array>
          </mxGeometry>
        </mxCell>
      </root>
    </mxGraphModel>
  </diagram>
</mxfile>
